
<svg version="1.1" id="Layer_1" xmlns="http://www.w3.org/2000/svg" xmlns:xlink="http://www.w3.org/1999/xlink" viewBox="0 0 18 24" >
<path id="cart.svg" d="M15,3h-1.5c0-1.7-2-3-4.5-3S4.5,1.3,4.5,3H3C1.3,3,0,4.3,0,6l0,0v15c0,1.7,1.3,3,3,3h12c1.7,0,3-1.3,3-3V6
	C18,4.3,16.7,3,15,3z M9,1.5c1.7,0,3,0.5,3,1.5H6C6,2,7.3,1.5,9,1.5z M16.5,21c0,0.8-0.7,1.5-1.5,1.5H3c-0.8,0-1.5-0.7-1.5-1.5v-1.5
	h15V21z M16.5,18h-15V6c0-0.8,0.7-1.5,1.5-1.5l0,0h1.5V9H6V4.5h6V9h1.5V4.5H15c0.8,0,1.5,0.7,1.5,1.5V18z"/>
</svg>
