<svg version="1.1" id="Layer_1" xmlns="http://www.w3.org/2000/svg" xmlns:xlink="http://www.w3.org/1999/xlink"
	 viewBox="0 0 50.9 35.7" >
<path id="case.svg" d="M8.3,12.9c1.1-2.1,3.3-3.5,5.7-3.6h26.2V7.6c0-1.4-1.1-2.5-2.5-2.5H26.9V3.7c0-2-1.6-3.7-3.7-3.7H17
	c-2,0-3.7,1.7-3.7,3.7v1.4H2.5C1.1,5.2,0,6.3,0,7.6v22.2L8.3,12.9z M15.7,3.7c0-0.3,0.1-0.6,0.4-0.9c0.2-0.2,0.5-0.4,0.9-0.4h6.3
	c0.7,0,1.2,0.6,1.2,1.2c0,0,0,0,0,0v1.4h-8.8V3.7z M41.2,33.4c-0.7,1.3-2.1,2.1-3.5,2.2H2.3c-0.8,0.1-1.5-0.4-1.6-1.2
	c-0.1-0.4,0-0.7,0.2-1L10.5,14c0.7-1.3,2.1-2.1,3.5-2.2h35.3c0.8-0.1,1.5,0.4,1.6,1.2c0.1,0.4,0,0.7-0.2,1L41.2,33.4z"/>
</svg>
