
<svg version="1.1" id="Layer_1" xmlns="http://www.w3.org/2000/svg" xmlns:xlink="http://www.w3.org/1999/xlink"
	 viewBox="0 0 44 44" >
<path id="clients.svg" d="M19.9,30.3c5.7,0,10.3-5.6,10.3-12.5S25.6,5.2,19.9,5.2c-2.9,0.1-5.6,1.4-7.4,3.8c-1.9,2.5-3,5.6-2.9,8.8
	C9.6,24.6,14.3,30.3,19.9,30.3z M19.9,7.9c4.2,0,7.6,4.4,7.6,9.8s-3.4,9.8-7.6,9.8s-7.6-4.4-7.6-9.8S15.8,7.9,19.9,7.9z M28.6,28.9
	c-0.8,0-1.4,0.6-1.4,1.4s0.6,1.4,1.4,1.4c4.7,0,8.5,3.8,8.5,8.5c0,0.6-0.5,1.1-1.1,1.1h0H3.8c-0.6,0-1.1-0.5-1.1-1.1l0,0
	c0-4.7,3.8-8.5,8.5-8.5c0.8,0,1.4-0.6,1.4-1.4s-0.6-1.4-1.4-1.4C5,28.9,0,33.9,0,40.2C0,42.3,1.7,44,3.8,44H36
	c2.1,0,3.8-1.7,3.9-3.9C39.9,33.9,34.8,28.9,28.6,28.9L28.6,28.9z M20.9,3.6c0.9-0.6,2-0.9,3.1-0.9c4.2,0,7.6,4.4,7.6,9.8
	c0,1-0.1,1.9-0.3,2.8c-0.2,0.7,0.3,1.5,1,1.6c0.1,0,0.2,0,0.3,0c0.6,0,1.2-0.4,1.3-1.1c0.3-1.1,0.4-2.3,0.4-3.5
	C34.4,5.6,29.8,0,24.1,0c-1.6,0-3.2,0.4-4.5,1.3c-0.7,0.4-0.9,1.2-0.5,1.9C19.4,3.8,20.3,4,20.9,3.6z M33,23.4
	c-0.8,0-1.4,0.6-1.4,1.4s0.6,1.4,1.4,1.4c4.6,0.1,8.3,3.9,8.3,8.5c0,0,0,0.1,0,0.1c0,0.2,0,0.3-0.1,0.5c-0.3,0.7,0,1.5,0.7,1.8
	c0.7,0.3,1.5,0,1.8-0.7c0.2-0.5,0.3-1,0.3-1.6C44.1,28.6,39.2,23.5,33,23.4C33.1,23.4,33,23.4,33,23.4z"/>
</svg>
