<svg version="1.1" id="Layer_1" xmlns="http://www.w3.org/2000/svg" xmlns:xlink="http://www.w3.org/1999/xlink"
	 viewBox="0 0 43.6 43.6" >
<path id="cogwheel.svg" d="M43.6,21.8c0-1.7-1.1-3.2-2.6-3.9c-2.5-0.6-4-3-3.5-5.5c0.1-0.5,0.3-1,0.6-1.4C39,8.8,38,6.4,35.9,5.5
	c-1-0.4-2.2-0.4-3.3,0c-1.3,0.6-2.8,0.8-4.2,0.3c-1.3-0.7-2.3-1.9-2.7-3.2c-0.9-2.1-3.3-3.2-5.4-2.3c-1,0.4-1.9,1.3-2.3,2.3
	c-0.6,2.5-3.1,4-5.6,3.5c-0.5-0.1-1-0.3-1.4-0.6C8.8,4.6,6.4,5.6,5.5,7.7C5,8.7,5,9.9,5.5,11c1.4,2.2,0.7,5-1.5,6.4
	c-0.4,0.3-0.9,0.5-1.4,0.6c-2.1,0.9-3.2,3.3-2.3,5.4c0.4,1.1,1.3,1.9,2.3,2.3c2.5,0.6,4,3,3.5,5.5c-0.1,0.5-0.3,1-0.6,1.4
	c-0.9,2.1,0.1,4.6,2.2,5.5c1,0.4,2.2,0.4,3.3,0c2.2-1.4,5-0.7,6.4,1.5c0.3,0.4,0.5,0.9,0.6,1.4c0.9,2.1,3.3,3.2,5.4,2.3
	c1-0.4,1.9-1.3,2.3-2.3c0.6-2.5,3.1-4.1,5.5-3.5c0.5,0.1,1,0.3,1.4,0.6c2.1,0.9,4.6-0.1,5.5-2.2c0.4-1,0.4-2.2,0-3.3
	c-1.4-2.2-0.7-5,1.4-6.4c0.4-0.3,0.9-0.5,1.4-0.6C42.5,25,43.5,23.5,43.6,21.8z M21.8,29.8c-4.4,0-8-3.6-8-8c0-4.4,3.6-8,8-8
	c4.4,0,8,3.6,8,8l0,0C29.8,26.2,26.2,29.8,21.8,29.8C21.8,29.8,21.8,29.8,21.8,29.8z"/>
</svg>
