
<svg version="1.1" id="Layer_1" xmlns="http://www.w3.org/2000/svg" xmlns:xlink="http://www.w3.org/1999/xlink" 
	 viewBox="0 0 48 44" >
<path id="cup.svg" d="M46.1,42.7c0,0.7-0.5,1.2-1.2,1.3h0H1.3C0.6,44,0,43.4,0,42.7s0.6-1.3,1.3-1.3h43.6
	C45.5,41.5,46.1,42.1,46.1,42.7L46.1,42.7z M21.8,22.2c0.5,0.5,1.3,0.5,1.7,0c0,0,0,0,0,0c0.5-0.5,0.4-1.3-0.1-1.8
	c-2.1-2-1.7-6.1,0.2-8.4c2.5-3.1,3-8.7-0.2-11.7c-0.5-0.5-1.3-0.4-1.7,0c0,0,0,0,0,0c-0.5,0.5-0.4,1.3,0.1,1.8
	c1.9,1.8,1.9,5.8-0.1,8.3c-1.3,1.7-2,3.8-2.1,6C19.5,18.6,20.3,20.7,21.8,22.2L21.8,22.2z M48,19.6V22c0,3.4-2.7,6.2-6.2,6.2h-2.8
	c-1.9,5.4-7,9-12.7,9h-6.8c-7.5-0.1-13.5-6.2-13.5-13.7V11.2c0-0.7,0.5-1.2,1.2-1.3h0h7.9c1.6-2.5,1.5-6.1-0.2-7.8
	c-0.5-0.5-0.5-1.3-0.1-1.8c0.5-0.5,1.2-0.5,1.7-0.1c0,0,0,0,0,0c3.2,3,2.6,8.5,0.2,11.7c-1.8,2.3-2.3,6.4-0.2,8.4
	c0.5,0.5,0.5,1.3,0.1,1.8c-0.5,0.5-1.2,0.5-1.7,0.1c0,0,0,0,0,0c-1.5-1.5-2.3-3.7-2.2-5.8c0-1.4,0.3-2.7,0.9-3.9H8.6v11.2
	c0,6.1,4.9,11.1,11,11.2h6.8c6.1,0,11-5,11-11.2V12.5h-9.3c-0.7,0-1.3-0.6-1.3-1.3s0.6-1.3,1.3-1.3h10.5c0.7,0,1.2,0.6,1.2,1.3l0,0
	v2.1h2C45.3,13.4,48,16.2,48,19.6L48,19.6z M45.5,19.6c0-2-1.6-3.7-3.7-3.7h-2v9.9h2c2,0,3.7-1.7,3.7-3.7V19.6z"/>
</svg>
