<svg version="1.1" id="Layer_1" xmlns="http://www.w3.org/2000/svg" xmlns:xlink="http://www.w3.org/1999/xlink" 
	 viewBox="0 0 54 44" >
<path id="dish.svg" d="M52.3,40.6H1.7c-0.9,0.1-1.6,0.9-1.6,1.8c0.1,0.8,0.7,1.5,1.6,1.6h50.6c0.9-0.1,1.6-0.9,1.6-1.8
	C53.8,41.3,53.1,40.7,52.3,40.6z M28.7,6.8V3.4h3.4c0.9-0.1,1.6-0.9,1.6-1.8c-0.1-0.8-0.7-1.5-1.6-1.6H21.9
	c-0.9,0.1-1.6,0.9-1.6,1.8c0.1,0.8,0.7,1.5,1.6,1.6h3.4c0,0,0,3.5,0,3.4C11.1,7.7,0,19.6,0,33.8v1.7c0,0.9,0.8,1.7,1.7,1.7h50.6
	c0.9,0,1.7-0.8,1.7-1.7v-1.7C54,19.6,42.9,7.7,28.7,6.8L28.7,6.8z M3.4,33.8c0-13,10.6-23.6,23.6-23.6c13,0,23.6,10.6,23.6,23.6
	c0,0,0,0,0,0H3.4z"/>
</svg>
