
<svg version="1.1" id="Layer_1" xmlns="http://www.w3.org/2000/svg" xmlns:xlink="http://www.w3.org/1999/xlink"
	 viewBox="0 0 44 44" >
<path id="heart.svg" d="M30.3,0c-0.4,0-0.8,0-1.3,0.1l-0.5,0.1c-0.3,0-0.5,0.1-0.8,0.1c-0.2,0-0.4,0.1-0.6,0.1
	c-0.2,0-0.4,0.1-0.6,0.2S26.2,0.6,26,0.7c-0.2,0.1-0.3,0.1-0.5,0.2C25,1,24.6,1.2,24.1,1.5c-0.1,0-0.2,0.1-0.3,0.1
	c-0.2,0.1-0.4,0.3-0.7,0.4c-0.1,0.1-0.2,0.1-0.4,0.2c-0.2,0.1-0.4,0.3-0.6,0.4c-0.1,0-0.1,0.1-0.2,0.1C15.9-1.8,7.3-0.6,2.8,5.5
	C1,7.9,0,10.8,0,13.8c0,12.4,8,23.7,21.4,30.1c0.4,0.2,0.8,0.2,1.2,0C36,37.5,44,26.2,44,13.8C44,6.2,37.8,0,30.3,0z M22,41.1
	C9.9,35.1,2.8,24.9,2.8,13.8c0-6.1,4.9-11,10.9-11c2.2,0,4.4,0.7,6.2,1.9c-2.2,2.5-3.4,5.7-3.4,9.1c0,0.8,0.6,1.4,1.4,1.4
	s1.4-0.6,1.4-1.4c0-3.1,1.4-6.1,3.7-8.2c0.2-0.2,0.4-0.4,0.7-0.5l0.2-0.1c0.2-0.2,0.4-0.3,0.7-0.5c0.1,0,0.1-0.1,0.2-0.1
	c0.2-0.1,0.4-0.3,0.7-0.4l0.2-0.1c0.2-0.1,0.4-0.2,0.7-0.3c0.1,0,0.2-0.1,0.3-0.1c0.2-0.1,0.4-0.1,0.6-0.2c0.1,0,0.3-0.1,0.4-0.1
	C27.8,3,28,3,28.2,2.9c0.2,0,0.4,0,0.6-0.1c0.2,0,0.3,0,0.5-0.1c0.3,0,0.7,0,1.1,0c6.1,0,11,4.9,11,11C41.3,24.9,34.1,35.1,22,41.1z
	 M30.3,5.5c-0.8,0-1.4,0.6-1.4,1.4s0.6,1.4,1.4,1.4c3,0,5.5,2.5,5.5,5.5c0,0.8,0.6,1.4,1.4,1.4s1.4-0.6,1.4-1.4
	C38.5,9.2,34.8,5.5,30.3,5.5z"/>
</svg>
