<svg version="1.1" id="Layer_1" xmlns="http://www.w3.org/2000/svg" xmlns:xlink="http://www.w3.org/1999/xlink"
	 viewBox="0 0 22 22">
<path id="left-outline.svg" d="M7.6,10.4l4.8-4.8c0.3-0.3,0.8-0.3,1,0c0.3,0.3,0.3,0.8,0,1l-4.3,4.3l4.3,4.3c0.3,0.3,0.3,0.8,0,1
	c-0.3,0.3-0.8,0.3-1,0l-4.8-4.8c-0.1-0.1-0.2-0.3-0.2-0.5C7.4,10.7,7.4,10.5,7.6,10.4z M11,0C17,0,22,4.9,22,11C22,17,17,22,11,22
	C4.9,22,0,17,0,11C0,4.9,4.9,0,11,0C11,0,11,0,11,0L11,0z M11,20.5c5.3,0,9.5-4.3,9.5-9.5c0-5.3-4.3-9.5-9.5-9.5
	c-5.3,0-9.5,4.3-9.5,9.5C1.5,16.2,5.7,20.5,11,20.5L11,20.5z"/>
</svg>
