<svg xmlns="http://www.w3.org/2000/svg" xmlns:xlink="http://www.w3.org/1999/xlink" viewBox="0 0 63 55.1">
<path id="logo.svg" d="M36.8,10.7H26.3l5.3,9.2L36.8,10.7z M25,11.5l-5.3,9.2h10.5L25,11.5z M43.3,20.7l-5.3-9.2l-5.3,9.2H43.3z
	 M32.8,22.2l5.3,9.2l5.3-9.2H32.8z M19.7,22.2l5.3,9.2l5.3-9.2H19.7z M13.1,32.2h10.5L18.4,23L13.1,32.2z M49.9,32.2L44.7,23
	l-5.3,9.2H49.9L49.9,32.2z M31.5,0l-5.3,9.2h10.5L31.5,0z M44.7,42.9l5.3-9.2H39.4L44.7,42.9z M18.4,42.9l5.3-9.2H13.1L18.4,42.9z
	 M6.6,43.6h10.5l-5.3-9.2L6.6,43.6z M56.5,43.6l-5.3-9.2L46,43.6H56.5z M46,45.2l5.3,9.2l5.3-9.2H46z M32.8,45.2l5.3,9.2l5.3-9.2
	H32.8L32.8,45.2z M11.8,54.4l5.3-9.2H6.6L11.8,54.4z M0,55.1h10.5l-5.3-9.2L0,55.1z M26.3,55.1h10.5l-5.3-9.2L26.3,55.1z M39.4,55.1
	h10.5l-5.3-9.2L39.4,55.1z M57.8,45.9l-5.3,9.2H63L57.8,45.9z"/>
</svg>
