<svg version="1.1" id="Layer_1" xmlns="http://www.w3.org/2000/svg" xmlns:xlink="http://www.w3.org/1999/xlink" 
	 viewBox="0 0 25.1 24.7" >
<path id="lupa.svg" d="M10.5,4.2C9.8,4.1,9.1,4.6,9.1,5.4s0.5,1.3,1.2,1.4c0.1,0,0.2,0,0.2,0c1.6,0,3,0.9,3.7,2.3
	c0.3,0.6,1.1,0.9,1.8,0.6c0.6-0.3,0.9-1.1,0.6-1.7c0,0,0,0,0,0C15.4,5.6,13.1,4.2,10.5,4.2z M24.6,22l-4.4-4.3
	c1.3-1.8,2.1-4.1,2.1-6.4c0.1-6.2-4.9-11.2-11-11.3S0.1,4.9,0,11c-0.1,6.2,4.9,11.2,11,11.3c2.5,0,5-0.8,6.9-2.3l4.3,4.3
	c0.6,0.6,1.7,0.6,2.3,0C25.3,23.6,25.3,22.6,24.6,22C24.7,22,24.6,22,24.6,22L24.6,22z M2.6,11.3c0.1-4.7,4-8.5,8.7-8.4
	c4.6,0.1,8.3,3.8,8.4,8.4c0,2.5-1.1,4.8-3,6.4c-3.6,3-9,2.6-12.1-1C3.3,15.2,2.6,13.3,2.6,11.3L2.6,11.3z"/>
</svg>
