<svg version="1.1" id="Layer_1" xmlns="http://www.w3.org/2000/svg" xmlns:xlink="http://www.w3.org/1999/xlink"
	 viewBox="0 0 44 44" >
<path id="message.svg" d="M28.9,23.4H15.1c-0.8,0-1.4,0.6-1.4,1.4s0.6,1.4,1.4,1.4h13.7c0.8,0,1.4-0.6,1.4-1.4S29.6,23.4,28.9,23.4z
	 M31.6,15.1H12.4c-0.8,0-1.4,0.6-1.4,1.4s0.6,1.4,1.4,1.4h19.2c1.8,0,3.3,0.5,3.3-1.4C34.9,14.7,33.5,13.2,31.6,15.1z M22,0
	C9.9,0,0,8.6,0,19.3c0.1,6.1,3.2,11.7,8.2,15V44l9.6-5.9c1.4,0.2,2.7,0.3,4.1,0.4c12.1,0,22-8.6,22-19.3S34.1,0,22,0z M22,35.8
	c-1.6,0-3.1-0.2-4.6-0.5l-6.5,3.9l0.1-6.4c-5-3-8.2-7.9-8.2-13.5c0-9.1,8.6-16.5,19.2-16.5s19.2,7.4,19.2,16.5S32.6,35.8,22,35.8z"
	/>
</svg>
