<svg version="1.1" id="Layer_1" xmlns="http://www.w3.org/2000/svg" xmlns:xlink="http://www.w3.org/1999/xlink"
	 viewBox="0 0 47.6 47.6" >
<path id="pencil.svg" d="M47.1,16.6c-0.6-0.6-1.6-0.6-2.2,0L31,30.4L11.6,39l-3-3l8.6-19.5L31,2.7c0.6-0.6,0.6-1.6,0-2.2
	c-0.6-0.6-1.6-0.6-2.2,0L14.5,14.7L0,47.6l32.9-14.5l14.3-14.3C47.8,18.2,47.8,17.2,47.1,16.6z M27,27.6c0.6,0.6,1.6,0.6,2.3,0
	l13.3-13.3c0.6-0.6,0.6-1.6,0-2.3c-0.6-0.6-1.6-0.6-2.2,0L27,25.4C26.3,26,26.3,27,27,27.6L27,27.6z M23.5,24.1
	c0.6,0.6,1.6,0.6,2.2,0l13.3-13.3c0.6-0.6,0.6-1.6,0-2.3c-0.6-0.6-1.6-0.6-2.2,0L23.5,21.9C22.9,22.5,22.9,23.5,23.5,24.1L23.5,24.1
	z M20,20.6c0.6,0.6,1.6,0.6,2.2,0c0,0,0,0,0,0L35.6,7.3c0.6-0.6,0.6-1.6,0-2.3c-0.6-0.6-1.6-0.6-2.2,0L20,18.4
	c-0.7,0.6-0.8,1.5-0.3,2.2C19.8,20.6,19.9,20.7,20,20.6L20,20.6z"/>
</svg>
