<svg version="1.1" id="Layer_1" xmlns="http://www.w3.org/2000/svg" xmlns:xlink="http://www.w3.org/1999/xlink" 
	 viewBox="0 0 70.1 70.1">
<path id="play.svg" d="M30,51.9c-1.1,0-2.1-0.9-2.1-2c0,0,0,0,0,0V20.4c0-1.1,0.9-2.1,2.1-2.1c0.5,0,0.9,0.2,1.3,0.5L49,33.5
	c0.9,0.7,1,2,0.3,2.9c-0.1,0.1-0.2,0.2-0.3,0.3L31.3,51.5C30.9,51.8,30.5,51.9,30,51.9z M32.1,24.7v20.7l12.4-10.4L32.1,24.7z
	 M35,70.1c-6,0-11.9-1.5-17.1-4.5c-1-0.5-1.4-1.8-0.8-2.8c0.5-1,1.8-1.4,2.8-0.8c0,0,0,0,0,0c14.9,8.4,33.7,3.1,42.1-11.8
	s3.1-33.7-11.8-42.1C35.4-0.2,16.5,5.1,8.2,19.9C1.3,32,3.4,47.2,13.2,57c0.8,0.8,0.8,2.1,0,2.9c-0.8,0.8-2.1,0.8-2.9,0c0,0,0,0,0,0
	C-3.4,46.2-3.4,24,10.2,10.3s35.9-13.7,49.6-0.1c13.7,13.7,13.7,35.9,0.1,49.6C53.3,66.4,44.3,70.1,35,70.1L35,70.1z"/>
</svg>
