<svg version="1.1" id="Layer_1" xmlns="http://www.w3.org/2000/svg" xmlns:xlink="http://www.w3.org/1999/xlink" 
	 viewBox="0 0 22 22" >
<path id="right-outline.svg" d="M14.4,10.4L9.6,5.6c-0.3-0.3-0.8-0.3-1,0c-0.3,0.3-0.3,0.8,0,1l4.3,4.3l-4.3,4.3
	c-0.3,0.3-0.3,0.8,0,1c0.3,0.3,0.8,0.3,1,0l4.8-4.8c0.1-0.1,0.2-0.3,0.2-0.5C14.6,10.7,14.5,10.5,14.4,10.4z M11,0C4.9,0,0,4.9,0,11
	c0,6.1,4.9,11,11,11C17,22,22,17,22,11C22,4.9,17,0,11,0C11,0,11,0,11,0L11,0z M11,20.5c-5.3,0-9.5-4.3-9.5-9.5
	c0-5.3,4.3-9.5,9.5-9.5c5.3,0,9.5,4.3,9.5,9.5C20.5,16.2,16.2,20.5,11,20.5L11,20.5z"/>
</svg>
