<svg version="1.1" id="Layer_1" xmlns="http://www.w3.org/2000/svg" xmlns:xlink="http://www.w3.org/1999/xlink" viewBox="0 0 24 24.3">
<path id="search.svg" d="M23.8,23l-6.2-6.1c1.7-1.8,2.6-4.2,2.6-6.7C20.3,4.7,15.8,0.1,10.3,0C4.7-0.1,0.1,4.4,0,9.9
	s4.4,10.2,9.9,10.3c0.1,0,0.1,0,0.2,0c2.3,0,4.6-0.8,6.4-2.2l6.2,6.1c0.3,0.3,0.8,0.3,1.1,0C24.1,23.8,24.1,23.3,23.8,23
	C23.8,23,23.8,23,23.8,23z M10.1,18.7c-4.6-0.1-8.3-3.9-8.3-8.5c0.1-4.6,3.9-8.3,8.5-8.3c4.6,0.1,8.3,3.8,8.3,8.4
	C18.6,14.9,14.8,18.7,10.1,18.7z"/>
</svg>
